<svg width="28" height="30" viewBox="0 0 28 30" fill="none" xmlns="http://www.w3.org/2000/svg">
<g filter="url(#filter0_d_1706_2746)">
<path d="M23.3191 19.679H4.68156C4.56103 19.679 4.4646 19.7754 4.4646 19.8933V21.5004C4.4646 21.6183 4.56103 21.7147 4.68156 21.7147H23.3191C23.4396 21.7147 23.536 21.6183 23.536 21.5004V19.8933C23.536 19.7754 23.4396 19.679 23.3191 19.679ZM13.8316 16.7058C13.8516 16.7314 13.8772 16.7521 13.9065 16.7663C13.9357 16.7806 13.9678 16.788 14.0003 16.788C14.0328 16.788 14.0649 16.7806 14.0942 16.7663C14.1234 16.7521 14.149 16.7314 14.1691 16.7058L17.1691 12.9102C17.2789 12.771 17.1798 12.5647 17.0003 12.5647H15.0155V3.50042C15.0155 3.38256 14.9191 3.28613 14.8012 3.28613H13.1941C13.0762 3.28613 12.9798 3.38256 12.9798 3.50042V12.562H11.0003C10.8209 12.562 10.7217 12.7683 10.8316 12.9076L13.8316 16.7058Z" fill="#E5E5E5"/>
</g>
<defs>
<filter id="filter0_d_1706_2746" x="-2" y="0.5" width="32" height="32" filterUnits="userSpaceOnUse" color-interpolation-filters="sRGB">
<feFlood flood-opacity="0" result="BackgroundImageFix"/>
<feColorMatrix in="SourceAlpha" type="matrix" values="0 0 0 0 0 0 0 0 0 0 0 0 0 0 0 0 0 0 127 0" result="hardAlpha"/>
<feOffset dy="4"/>
<feGaussianBlur stdDeviation="2"/>
<feComposite in2="hardAlpha" operator="out"/>
<feColorMatrix type="matrix" values="0 0 0 0 0 0 0 0 0 0 0 0 0 0 0 0 0 0 0.25 0"/>
<feBlend mode="normal" in2="BackgroundImageFix" result="effect1_dropShadow_1706_2746"/>
<feBlend mode="normal" in="SourceGraphic" in2="effect1_dropShadow_1706_2746" result="shape"/>
</filter>
</defs>
</svg>
