<svg width="24" height="24" viewBox="0 0 24 24" fill="none" xmlns="http://www.w3.org/2000/svg">
<path d="M0 2C0 0.89543 0.895431 0 2 0H22C23.1046 0 24 0.895431 24 2V22C24 23.1046 23.1046 24 22 24H2C0.89543 24 0 23.1046 0 22V2Z" fill="#DFD1A7"/>
<g clip-path="url(#clip0_1610_2990)">
<path d="M10.2781 14.1207L10.0135 17.8433C10.3921 17.8433 10.5561 17.6807 10.7528 17.4853L12.5281 15.7887L16.2068 18.4827C16.8815 18.8587 17.3568 18.6607 17.5388 17.862L19.9535 6.54734L19.9541 6.54667C20.1681 5.54934 19.5935 5.15934 18.9361 5.40401L4.74279 10.838C3.77412 11.214 3.78879 11.754 4.57812 11.9987L8.20679 13.1273L16.6355 7.85334C17.0321 7.59067 17.3928 7.73601 17.0961 7.99867L10.2781 14.1207Z" fill="#1F1F1F"/>
</g>
<defs>
<clipPath id="clip0_1610_2990">
<rect width="16" height="16" fill="white" transform="translate(4 4)"/>
</clipPath>
</defs>
</svg>
