<svg width="24" height="24" viewBox="0 0 24 24" fill="none" xmlns="http://www.w3.org/2000/svg">
<path d="M0 2C0 0.89543 0.895431 0 2 0H22C23.1046 0 24 0.895431 24 2V22C24 23.1046 23.1046 24 22 24H2C0.89543 24 0 23.1046 0 22V2Z" fill="#DFD1A7"/>
<g clip-path="url(#clip0_290_3835)">
<path d="M12.002 4H11.998C7.587 4 4 7.588 4 12C4 13.75 4.564 15.372 5.523 16.689L4.526 19.661L7.601 18.678C8.866 19.516 10.375 20 12.002 20C16.413 20 20 16.411 20 12C20 7.589 16.413 4 12.002 4ZM16.657 15.297C16.464 15.842 15.698 16.294 15.087 16.426C14.669 16.515 14.123 16.586 12.285 15.824C9.934 14.85 8.42 12.461 8.302 12.306C8.189 12.151 7.352 11.041 7.352 9.893C7.352 8.745 7.935 8.186 8.17 7.946C8.363 7.749 8.682 7.659 8.988 7.659C9.087 7.659 9.176 7.664 9.256 7.668C9.491 7.678 9.609 7.692 9.764 8.063C9.957 8.528 10.427 9.676 10.483 9.794C10.54 9.912 10.597 10.072 10.517 10.227C10.442 10.387 10.376 10.458 10.258 10.594C10.14 10.73 10.028 10.834 9.91 10.98C9.802 11.107 9.68 11.243 9.816 11.478C9.952 11.708 10.422 12.475 11.114 13.091C12.007 13.886 12.731 14.14 12.99 14.248C13.183 14.328 13.413 14.309 13.554 14.159C13.733 13.966 13.954 13.646 14.179 13.331C14.339 13.105 14.541 13.077 14.753 13.157C14.969 13.232 16.112 13.797 16.347 13.914C16.582 14.032 16.737 14.088 16.794 14.187C16.85 14.286 16.85 14.751 16.657 15.297Z" fill="#1F1F1F"/>
</g>
<defs>
<clipPath id="clip0_290_3835">
<rect width="16" height="16" fill="white" transform="translate(4 4)"/>
</clipPath>
</defs>
</svg>
