<svg width="64" height="65" viewBox="0 0 64 65" fill="none" xmlns="http://www.w3.org/2000/svg">
<path d="M39.6252 21.5H39.759C39.8554 21.5034 39.9514 21.4874 40.0413 21.4528C40.1313 21.4182 40.2133 21.3658 40.2825 21.2987C40.3517 21.2317 40.4067 21.1513 40.4441 21.0625C40.4815 20.9737 40.5006 20.8782 40.5002 20.7819V17.75H41.994C42.3526 17.7556 42.7087 17.6901 43.0417 17.5573C43.3748 17.4245 43.6783 17.227 43.9345 16.9762C44.1908 16.7254 44.3949 16.4263 44.5349 16.0962C44.6749 15.766 44.748 15.4114 44.7502 15.0529V4.5C44.748 3.77028 44.4567 3.07116 43.9401 2.55574C43.4235 2.04032 42.7238 1.75059 41.994 1.75H22.0065C21.2768 1.75053 20.577 2.04022 20.0603 2.55565C19.5437 3.07108 19.2524 3.77023 19.2502 4.5V15.0529C19.2523 15.4114 19.3255 15.766 19.4655 16.0962C19.6055 16.4263 19.8095 16.7254 20.0658 16.9762C20.3221 17.227 20.6255 17.4245 20.9586 17.5573C21.2917 17.6901 21.6478 17.7556 22.0063 17.75H23.5002V20.7819C23.4998 20.8782 23.5189 20.9736 23.5563 21.0624C23.5936 21.1512 23.6486 21.2316 23.7178 21.2986C23.7869 21.3657 23.8689 21.4181 23.9589 21.4527C24.0488 21.4873 24.1448 21.5034 24.241 21.5H24.3752L14.6773 62.3266C14.6511 62.4368 14.6502 62.5515 14.6747 62.662C14.6992 62.7726 14.7483 62.8762 14.8186 62.965C14.8888 63.0539 14.9782 63.1257 15.0801 63.175C15.182 63.2244 15.2938 63.25 15.407 63.25H18.2195C18.3883 63.25 18.5521 63.1931 18.6845 63.0884C18.8169 62.9838 18.9102 62.8376 18.9492 62.6734L21.7653 50.8834L29.8752 54.3561V62.5C29.8717 62.5968 29.8877 62.6933 29.9222 62.7838C29.9567 62.8744 30.009 62.957 30.0761 63.027C30.1431 63.0969 30.2235 63.1527 30.3125 63.191C30.4014 63.2293 30.4972 63.2494 30.594 63.25H33.4065C33.5034 63.2493 33.5991 63.2292 33.6881 63.1909C33.777 63.1526 33.8574 63.0968 33.9244 63.0269C33.9914 62.9569 34.0437 62.8743 34.0782 62.7838C34.1126 62.6933 34.1286 62.5968 34.1252 62.5V54.3519L42.2305 50.8625L45.043 62.6729C45.0837 62.8376 45.1785 62.984 45.3122 63.0885C45.4459 63.1931 45.6108 63.2498 45.7805 63.2495H48.593C48.7063 63.2495 48.8181 63.2239 48.92 63.1745C49.0219 63.1252 49.1113 63.0534 49.1815 62.9645C49.2517 62.8757 49.3009 62.7721 49.3254 62.6615C49.3499 62.551 49.349 62.4363 49.3228 62.3261L39.6252 21.5ZM43.2502 13.125H36.9912C37.6494 12.25 38.0348 11.0125 38.0348 9.75775C38.0304 8.79749 37.7972 7.85211 37.3544 7H43.2502V13.125ZM20.7502 4.5C20.7519 4.16796 20.885 3.85011 21.1204 3.61589C21.3558 3.38167 21.6742 3.25013 22.0063 3.25H41.9938C42.3259 3.25006 42.6444 3.38157 42.8799 3.6158C43.1153 3.85002 43.2484 4.16791 43.2502 4.5V5.5H36.2514C35.1225 4.37511 33.5938 3.74349 32.0002 3.74349C30.4065 3.74349 28.8778 4.37511 27.7489 5.5H20.7502V4.5ZM36.5348 9.77637C36.5346 10.6732 36.2686 11.5499 35.7702 12.2955C35.2718 13.0411 34.5636 13.6222 33.735 13.9653C32.9064 14.3084 31.9946 14.3981 31.1151 14.223C30.2355 14.048 29.4275 13.616 28.7934 12.9818C28.1593 12.3476 27.7275 11.5396 27.5526 10.66C27.3777 9.7804 27.4676 8.86868 27.8108 8.04013C28.154 7.21158 28.7352 6.50341 29.4809 6.00517C30.2266 5.50693 31.1033 5.241 32.0002 5.241C33.2025 5.24249 34.3552 5.72082 35.2053 6.57107C36.0554 7.42132 36.5335 8.57404 36.5348 9.77637ZM20.7502 7H26.6459C26.2032 7.85211 25.9699 8.79749 25.9655 9.75775C25.9655 11.0129 26.3509 12.25 27.0092 13.125H20.7502V7ZM22.0063 16.25C21.317 16.25 20.7502 15.7421 20.7502 15.0529V14.625H28.4672C29.4943 15.3705 30.731 15.772 32.0002 15.772C33.2694 15.772 34.506 15.3705 35.5332 14.625H43.2502V15.0529C43.2502 15.7421 42.6833 16.25 41.994 16.25H22.0063ZM17.6265 61.75H16.356L25.9167 21.5H27.1908L17.6265 61.75ZM29.8752 52.7239L22.1168 49.402L22.3693 48.3717L29.8752 51.74V52.7239ZM29.8752 50.0956L22.7144 46.8859L28.7367 21.5H29.8752V50.0956ZM32.6252 61.75H31.3752V21.5H32.6252V61.75ZM25.0002 20V17.75H39.0002V20H25.0002ZM35.2713 21.5L41.2859 46.8859L34.1252 50.0955V21.5H35.2713ZM34.1252 52.7184V51.7399L41.6388 48.3717L41.8708 49.3814L34.1252 52.7184ZM46.3738 61.75L36.8133 21.5H38.0837L47.6443 61.75H46.3738Z" fill="#F2F2F2"/>
<path d="M27.6606 33.1088C27.5646 33.0868 27.4652 33.0839 27.3681 33.1003C27.271 33.1167 27.178 33.152 27.0946 33.2043C27.0111 33.2566 26.9388 33.3249 26.8817 33.4051C26.8246 33.4854 26.7839 33.5761 26.7619 33.6721L26.6598 34.1166C26.6378 34.2126 26.6349 34.312 26.6513 34.4092C26.6677 34.5063 26.7031 34.5993 26.7555 34.6828C26.8078 34.7662 26.876 34.8386 26.9563 34.8957C27.0366 34.9528 27.1274 34.9935 27.2234 35.0155C27.3194 35.0375 27.4189 35.0404 27.516 35.024C27.6132 35.0076 27.7061 34.9722 27.7896 34.9199C27.8731 34.8676 27.9454 34.7993 28.0025 34.719C28.0596 34.6387 28.1003 34.548 28.1223 34.452L28.2244 34.0076C28.2464 33.9116 28.2493 33.8121 28.2328 33.715C28.2164 33.6178 28.181 33.5249 28.1287 33.4414C28.0763 33.358 28.008 33.2856 27.9277 33.2286C27.8474 33.1715 27.7566 33.1308 27.6606 33.1088Z" fill="#F2F2F2"/>
<path d="M27.0176 35.9133C26.9216 35.8913 26.8222 35.8884 26.7251 35.9047C26.628 35.9211 26.535 35.9565 26.4516 36.0088C26.3681 36.0611 26.2958 36.1293 26.2387 36.2096C26.1816 36.2898 26.1409 36.3805 26.1189 36.4765L24.2226 44.7423C24.2006 44.8383 24.1977 44.9377 24.2141 45.0349C24.2305 45.132 24.2658 45.225 24.3182 45.3085C24.3705 45.392 24.4388 45.4643 24.519 45.5214C24.5993 45.5785 24.6901 45.6193 24.7861 45.6413C24.8821 45.6633 24.9816 45.6662 25.0787 45.6498C25.1759 45.6334 25.2688 45.5981 25.3523 45.5457C25.4358 45.4934 25.5081 45.4252 25.5652 45.3449C25.6223 45.2646 25.6631 45.1738 25.6851 45.0778L27.5809 36.8124C27.6029 36.7164 27.6059 36.617 27.5895 36.5198C27.5732 36.4226 27.5378 36.3296 27.4855 36.2461C27.4332 36.1626 27.365 36.0903 27.2847 36.0332C27.2044 35.976 27.1136 35.9353 27.0176 35.9133Z" fill="#F2F2F2"/>
<path d="M32.7497 8.99995V6.92095C32.7498 6.81026 32.7278 6.70067 32.6848 6.59865C32.6419 6.49662 32.579 6.40423 32.4997 6.32693C32.4205 6.24962 32.3266 6.18897 32.2235 6.14855C32.1205 6.10813 32.0104 6.08876 31.8997 6.09158C30.9388 6.11755 30.026 6.51797 29.3561 7.20742C28.6861 7.89687 28.3121 8.82079 28.3137 9.78211C28.3154 10.7434 28.6925 11.6661 29.3648 12.3533C30.037 13.0404 30.9512 13.4377 31.9122 13.4605C31.9416 13.4605 31.9707 13.4615 31.9997 13.4615C32.9592 13.4598 33.8803 13.0847 34.5681 12.4157C35.2558 11.7467 35.6561 10.8363 35.6842 9.87721C35.6898 9.65014 35.6056 9.43005 35.4499 9.2647C35.373 9.18351 35.2809 9.11832 35.1788 9.07288C35.0767 9.02744 34.9666 9.00266 34.8549 8.99995H32.7497ZM31.9471 11.9478C31.3884 11.9303 30.8573 11.701 30.4615 11.3064C30.0656 10.9118 29.8346 10.3814 29.8154 9.82283C29.8011 9.36596 29.9323 8.91636 30.1901 8.5389C30.448 8.16144 30.819 7.87563 31.2497 7.7227V9.69633C31.2504 9.8039 31.2726 9.91026 31.3149 10.0092C31.3572 10.1081 31.4187 10.1976 31.496 10.2724C31.5733 10.3472 31.6647 10.4059 31.765 10.445C31.8652 10.484 31.9722 10.5027 32.0797 10.5H34.053C33.9 10.9329 33.6138 11.3062 33.2355 11.5663C32.8571 11.8264 32.4061 11.96 31.9471 11.9478Z" fill="#F2F2F2"/>
</svg>
