<svg width="64" height="64" viewBox="0 0 64 64" fill="none" xmlns="http://www.w3.org/2000/svg">
<path d="M29 44.6238C28.8011 44.6238 28.6103 44.7028 28.4697 44.8434C28.329 44.9841 28.25 45.1749 28.25 45.3738V45.8298C28.25 46.0287 28.329 46.2195 28.4697 46.3601C28.6103 46.5008 28.8011 46.5798 29 46.5798C29.1989 46.5798 29.3897 46.5008 29.5303 46.3601C29.671 46.2195 29.75 46.0287 29.75 45.8298V45.3738C29.75 45.1749 29.671 44.9841 29.5303 44.8434C29.3897 44.7028 29.1989 44.6238 29 44.6238Z" fill="#F2F2F2"/>
<path d="M29 47.501C28.8011 47.501 28.6103 47.58 28.4697 47.7206C28.329 47.8613 28.25 48.0521 28.25 48.251V56.7316C28.25 56.9305 28.329 57.1213 28.4697 57.2619C28.6103 57.4026 28.8011 57.4816 29 57.4816C29.1989 57.4816 29.3897 57.4026 29.5303 57.2619C29.671 57.1213 29.75 56.9305 29.75 56.7316V48.251C29.75 48.0521 29.671 47.8613 29.5303 47.7206C29.3897 47.58 29.1989 47.501 29 47.501Z" fill="#F2F2F2"/>
<path d="M42.9357 12.0603C42.3957 11.4323 41.8374 10.7829 41.0147 10.5228C40.1386 10.2463 39.2804 10.4956 38.5235 10.7154C38.0729 10.8464 37.6485 10.9692 37.2919 10.9639C36.9158 10.9574 36.4616 10.8168 35.9811 10.6678C35.2061 10.4277 34.3268 10.1553 33.4899 10.4071C33.3956 10.4354 33.3077 10.4821 33.2315 10.5444C33.1552 10.6067 33.0919 10.6834 33.0453 10.7701C32.9986 10.8569 32.9695 10.952 32.9596 11.0499C32.9497 11.1479 32.9592 11.2469 32.9876 11.3412C33.0159 11.4356 33.0626 11.5234 33.1249 11.5997C33.1872 11.676 33.2639 11.7392 33.3506 11.7859C33.4374 11.8325 33.5325 11.8616 33.6305 11.8715C33.7285 11.8814 33.8274 11.8719 33.9218 11.8436C34.3205 11.7238 34.9389 11.9153 35.5373 12.1007C36.097 12.2741 36.676 12.4534 37.2658 12.4632C37.8475 12.4747 38.4039 12.3117 38.942 12.1554C39.5481 11.9794 40.1204 11.8131 40.5636 11.9528C40.9786 12.0838 41.3769 12.5468 41.7985 13.0372L41.8382 13.0834C41.9025 13.1581 41.9808 13.2194 42.0687 13.2639C42.1567 13.3083 42.2525 13.3349 42.3507 13.3423C42.449 13.3497 42.5477 13.3377 42.6413 13.3069C42.7349 13.2761 42.8215 13.2272 42.8962 13.163C42.9709 13.0988 43.0322 13.0204 43.0766 12.9325C43.121 12.8446 43.1477 12.7487 43.1551 12.6505C43.1625 12.5523 43.1504 12.4535 43.1197 12.3599C43.0889 12.2664 43.04 12.1797 42.9757 12.1051L42.9357 12.0603Z" fill="#F2F2F2"/>
<path d="M16.9068 17.1818C17.0951 17.1177 17.2503 16.9815 17.3381 16.803C17.426 16.6245 17.4394 16.4185 17.3753 16.2301C17.3112 16.0418 17.175 15.8867 16.9965 15.7988C16.8181 15.7109 16.612 15.6976 16.4237 15.7616L16.3662 15.7813C15.5819 16.0476 14.7711 16.3233 14.2233 16.9894C13.6397 17.6993 13.5506 18.5881 13.4719 19.3724C13.4251 19.8393 13.3808 20.2803 13.2424 20.6076C13.0959 20.9543 12.7958 21.3229 12.4782 21.7133C11.9657 22.3429 11.3853 23.0565 11.3061 23.9266C11.2971 24.0247 11.3076 24.1236 11.3369 24.2177C11.3662 24.3117 11.4137 24.399 11.4768 24.4747C11.5398 24.5504 11.6172 24.6129 11.7044 24.6587C11.7916 24.7044 11.887 24.7326 11.9851 24.7415C12.0083 24.7436 12.0311 24.7448 12.0539 24.7448C12.2411 24.7447 12.4214 24.6747 12.5596 24.5484C12.6977 24.4222 12.7837 24.2489 12.8006 24.0625C12.8381 23.6481 13.2469 23.1458 13.6423 22.6599C14.0122 22.2053 14.3947 21.7349 14.6244 21.1918C14.8513 20.6555 14.9091 20.0793 14.9649 19.5219C15.0274 18.894 15.0873 18.3009 15.3826 17.942C15.6589 17.6059 16.2372 17.4094 16.8493 17.2013L16.9068 17.1818Z" fill="#F2F2F2"/>
<path d="M19.908 25.1216C19.7255 25.0425 19.519 25.0392 19.3341 25.1124C19.1491 25.1856 19.0008 25.3293 18.9218 25.5118C18.6903 26.0462 18.6276 26.6221 18.5671 27.1789C18.4988 27.8063 18.4344 28.3988 18.1364 28.7552C17.857 29.0889 17.277 29.2802 16.663 29.4835L16.6053 29.5027C16.5104 29.5325 16.4224 29.5808 16.3464 29.645C16.2704 29.7091 16.2079 29.7877 16.1626 29.8762C16.1173 29.9647 16.09 30.0613 16.0823 30.1604C16.0746 30.2596 16.0868 30.3592 16.118 30.4536C16.1492 30.5481 16.1989 30.6353 16.2641 30.7103C16.3294 30.7854 16.4089 30.8467 16.4981 30.8907C16.5872 30.9347 16.6842 30.9606 16.7835 30.9667C16.8827 30.9729 16.9822 30.9593 17.0761 30.9267L17.1335 30.9078C17.92 30.6479 18.7335 30.3792 19.2869 29.7176C19.8764 29.0127 19.973 28.1247 20.0583 27.3412C20.109 26.8747 20.157 26.4341 20.2983 26.1078C20.3773 25.9253 20.3806 25.7188 20.3074 25.5339C20.2342 25.3489 20.0905 25.2006 19.908 25.1216Z" fill="#F2F2F2"/>
<path d="M33.3205 20.1249C32.7863 19.8935 32.2105 19.8309 31.6535 19.7702C31.0263 19.702 30.4338 19.6376 30.0773 19.3394C29.7433 19.06 29.5523 18.4799 29.3489 17.8657L29.3299 17.8084C29.2996 17.7141 29.2509 17.6268 29.1867 17.5515C29.1225 17.4762 29.0439 17.4143 28.9557 17.3694C28.8674 17.3246 28.7712 17.2977 28.6724 17.2902C28.5737 17.2828 28.4745 17.2949 28.3805 17.326C28.2865 17.3571 28.1996 17.4065 28.1248 17.4713C28.05 17.5361 27.9887 17.6151 27.9446 17.7037C27.9005 17.7924 27.8743 17.8888 27.8677 17.9876C27.861 18.0864 27.874 18.1855 27.9058 18.2792L27.9245 18.3361C28.1844 19.1229 28.453 19.9361 29.1149 20.4899C29.8198 21.0796 30.7078 21.1762 31.4914 21.2615C31.9579 21.3122 32.3984 21.3601 32.7247 21.5013C32.9068 21.5783 33.112 21.5802 33.2956 21.5066C33.4791 21.433 33.6261 21.2899 33.7047 21.1084C33.7833 20.9269 33.787 20.7218 33.715 20.5376C33.6431 20.3534 33.5013 20.205 33.3205 20.1249Z" fill="#F2F2F2"/>
<path d="M56.9861 16.675C56.895 16.0853 57.0047 15.3924 57.121 14.659C57.3016 13.5179 57.5065 12.2244 56.9008 11.0984C56.3133 10.0046 55.1482 9.39075 54.022 8.79725C53.295 8.41413 52.6083 8.05225 52.1395 7.59938C51.6913 7.16663 51.3408 6.529 50.9697 5.85388C50.4026 4.8225 49.7598 3.65388 48.5947 3.04675C47.5011 2.4775 46.2216 2.574 44.9841 2.66713C44.1401 2.73063 43.3427 2.79063 42.6522 2.64625C41.9617 2.50188 41.2552 2.1275 40.5073 1.73113C39.4108 1.15013 38.2796 0.548627 37.0471 0.632502C35.7363 0.721252 34.6791 1.535 33.7462 2.253C33.1357 2.72275 32.5587 3.1665 31.9752 3.3835C31.3642 3.6105 30.5901 3.667 29.7706 3.72675C29.4015 3.75375 29.0288 3.7815 28.6616 3.82538C28.3677 3.7465 28.0691 3.66125 27.7782 3.57725C26.2428 3.1335 24.655 2.67463 23.16 3.09488C21.5662 3.5425 20.4975 4.78875 19.4642 5.99413C18.7933 6.77663 18.1595 7.51588 17.4365 7.97113C16.683 8.44538 15.6865 8.73075 14.6317 9.03288C13.0567 9.48388 11.429 9.95025 10.4243 11.1441C9.39359 12.3691 9.31484 13.9738 9.23859 15.5256C9.18984 16.5194 9.14384 17.4581 8.85496 18.227C8.57996 18.9585 8.00121 19.7006 7.38809 20.4864C6.38884 21.7669 5.35571 23.091 5.35571 24.7138C5.35571 26.3365 6.38884 27.6606 7.38809 28.9411C8.00059 29.7269 8.58034 30.469 8.85496 31.2005C9.14384 31.9693 9.18984 32.908 9.23846 33.9018C9.31471 35.4536 9.39346 37.0583 10.4243 38.2834C11.4288 39.4773 13.0571 39.9436 14.6317 40.3945C15.6866 40.6968 16.683 40.982 17.4365 41.457C18.1595 41.9123 18.7932 42.6514 19.4642 43.434C20.4976 44.6393 21.5661 45.8856 23.16 46.3333C23.5732 46.4461 23.9999 46.5015 24.4282 46.498C24.8991 46.4932 25.3685 46.4437 25.8301 46.3504L26.0085 55.3861C26.0264 56.6798 25.9628 57.9733 25.818 59.259L25.7241 60.0889L25.7193 60.1733C25.7193 61.9689 27.9726 63.3754 30.8491 63.3754C33.7256 63.3754 35.979 61.9689 35.979 60.1733L35.6718 54.7269C35.6275 53.942 35.613 53.1441 35.6292 52.3558L35.7551 46.3291C36.2521 46.4365 36.7586 46.4936 37.267 46.4996C37.6964 46.5028 38.1242 46.4468 38.5383 46.3333C40.1321 45.8858 41.2008 44.6394 42.2341 43.434C42.905 42.6515 43.5388 41.9123 44.2618 41.4571C45.0153 40.9821 46.0118 40.6974 47.0666 40.3946C48.6416 39.9436 50.2693 39.4773 51.274 38.2835C52.3048 37.0585 52.3835 35.4538 52.4597 33.902C52.504 32.9968 52.5485 32.1389 52.7738 31.4119C53.6661 30.6183 53.9792 29.4229 54.2561 28.3619C54.4436 27.6433 54.6206 26.9645 54.9403 26.4608C55.2441 25.9819 55.7807 25.528 56.3488 25.0474C57.2705 24.2678 58.3152 23.3841 58.5805 22.1153C58.8457 20.8464 58.243 19.6184 57.7106 18.5349C57.3825 17.8666 57.0726 17.2356 56.9861 16.675ZM34.3747 40.5706L34.1293 52.3244C34.1125 53.1514 34.1276 53.9881 34.1742 54.8119L34.4786 60.1905C34.4568 60.9895 32.9118 61.8755 30.849 61.8755C28.8007 61.8755 27.2631 61.0021 27.2202 60.2075L27.3077 59.4276C27.4599 58.0777 27.5267 56.7194 27.5077 55.361L27.2917 44.4C27.2762 43.5943 27.0868 42.8015 26.7367 42.0757C26.3866 41.3498 25.8839 40.7082 25.263 40.1945L19.4926 35.4185C20.1426 35.1476 20.785 34.8071 21.2936 34.2841L25.6436 36.3625C25.8648 36.4682 26.1092 36.5159 26.3538 36.5011C26.5985 36.4863 26.8354 36.4096 27.0423 36.2781C27.2491 36.1466 27.4191 35.9646 27.5363 35.7493C27.6535 35.534 27.7141 35.2925 27.7122 35.0474L27.6708 32.1218C27.8303 32.0796 27.9866 32.0343 28.1386 31.9904C28.588 31.8598 29.0165 31.7386 29.3675 31.742L30.1617 34.9795C30.2261 35.2493 30.3675 35.4945 30.5687 35.6854C30.7699 35.8762 31.0223 36.0045 31.2951 36.0545C31.3867 36.0721 31.4799 36.081 31.5732 36.081C31.8031 36.0812 32.0296 36.0258 32.2334 35.9197C32.4373 35.8136 32.6126 35.6599 32.7443 35.4715L37.7983 28.3549C38.2144 28.2274 38.6447 28.1519 39.0793 28.1299C39.0947 28.1299 39.1107 28.131 39.1261 28.131L36.2582 33.4375C35.0751 35.6328 34.4295 38.0774 34.3747 40.5706ZM31.0083 32.1375C31.4758 32.2934 31.9632 32.3814 32.4557 32.3988C32.6919 32.4002 32.927 32.368 33.1541 32.303L31.5896 34.506L31.0083 32.1375ZM57.1121 21.8075C56.9523 22.5714 56.1886 23.2174 55.38 23.9014C54.7508 24.4336 54.1002 24.984 53.6736 25.6563C53.2281 26.3583 53.0128 27.184 52.8046 27.9825C52.5502 28.9575 52.3102 29.8781 51.7021 30.3551C51.0852 30.8391 50.0521 30.9145 48.9591 30.9943C48.0708 31.0591 47.1525 31.1261 46.3412 31.4275C46.1547 31.4968 46.0034 31.6373 45.9206 31.8181C45.8377 31.9989 45.8301 32.2053 45.8993 32.3918C45.9686 32.5782 46.1091 32.7295 46.2899 32.8124C46.4708 32.8953 46.6771 32.9029 46.8636 32.8336C47.4746 32.6065 48.2487 32.55 49.0682 32.4903C49.744 32.4588 50.4162 32.3741 51.0787 32.237C51.0136 32.7643 50.9872 33.3008 50.9613 33.8284C50.8943 35.1918 50.8312 36.4795 50.1261 37.3175C49.4162 38.1611 48.0742 38.5455 46.6535 38.9525C45.5441 39.2703 44.3968 39.5988 43.4626 40.187C42.5476 40.763 41.8092 41.6245 41.0952 42.4569C40.1662 43.5404 39.289 44.5636 38.1327 44.8884C37.4186 45.0884 36.6 44.9876 35.7868 44.8009L35.8743 40.6019C35.9239 38.3468 36.5077 36.1356 37.5778 34.15L40.6772 28.4143C40.7935 28.4471 40.9105 28.4809 41.0293 28.5154C42.1101 28.8294 43.335 29.1851 44.5377 28.8059C45.6662 28.45 46.4658 27.5201 47.2391 26.621C47.7626 26.0123 48.257 25.4374 48.8141 25.0726C48.8972 25.019 48.9689 24.9495 49.0251 24.8681C49.0813 24.7867 49.1208 24.695 49.1413 24.5982C49.1619 24.5014 49.1631 24.4016 49.1449 24.3044C49.1268 24.2071 49.0895 24.1145 49.0354 24.0317C48.9812 23.9489 48.9112 23.8777 48.8294 23.822C48.7476 23.7664 48.6556 23.7275 48.5588 23.7076C48.4619 23.6877 48.362 23.6871 48.2649 23.706C48.1678 23.7248 48.0754 23.7627 47.993 23.8174C47.2577 24.2983 46.6697 24.9819 46.1013 25.643C45.4357 26.4169 44.8071 27.1479 44.086 27.3753C43.3167 27.618 42.4085 27.3541 41.4473 27.0753C40.67 26.8494 39.868 26.6149 39.0521 26.63C38.2235 26.6444 37.3838 26.905 36.5718 27.156C35.5807 27.4629 34.6447 27.7528 33.9408 27.5413C33.7503 27.484 33.5449 27.5047 33.3697 27.5989C33.1945 27.6931 33.0639 27.8531 33.0066 28.0436C32.9494 28.2341 32.9701 28.4395 33.0643 28.6147C33.1585 28.7899 33.3185 28.9205 33.509 28.9778C33.824 29.0705 34.151 29.1163 34.4793 29.1138C34.8219 29.1098 35.1633 29.0722 35.4985 29.0013L33.703 31.5295C33.6957 31.417 33.6631 31.3076 33.6076 31.2095C33.5521 31.1114 33.4751 31.0271 33.3825 30.9629C33.2898 30.8987 33.1838 30.8563 33.0724 30.8389C32.9611 30.8214 32.8472 30.8294 32.7393 30.8621C32.3405 30.982 31.722 30.7903 31.1237 30.6049C30.564 30.4315 29.985 30.2523 29.3952 30.2424C28.8145 30.2321 28.2571 30.3938 27.719 30.55C27.1127 30.726 26.5401 30.8921 26.0973 30.7526C25.6823 30.6218 25.2841 30.1586 24.8625 29.6684L24.8227 29.6221C24.7585 29.5474 24.6801 29.4861 24.5922 29.4417C24.5043 29.3973 24.4085 29.3706 24.3102 29.3632C24.212 29.3559 24.1133 29.3679 24.0197 29.3987C23.9261 29.4294 23.8395 29.4783 23.7648 29.5426C23.6901 29.6068 23.6288 29.6851 23.5844 29.7731C23.5399 29.861 23.5133 29.9568 23.5059 30.0551C23.4985 30.1533 23.5105 30.252 23.5413 30.3456C23.5721 30.4392 23.621 30.5258 23.6852 30.6005L23.7247 30.6463C24.2647 31.2743 24.8231 31.9238 25.6457 32.1831C25.8169 32.2367 25.9931 32.2724 26.1716 32.2899L26.2091 34.9668L22.0825 32.9971C22.3563 32.2358 22.4233 31.3885 22.4878 30.5606C22.5013 30.3878 22.5148 30.2145 22.5302 30.0419C22.5404 29.9431 22.5308 29.8433 22.5021 29.7482C22.4734 29.6531 22.426 29.5647 22.3629 29.4881C22.2997 29.4115 22.2219 29.3481 22.1341 29.3018C22.0462 29.2555 21.9501 29.227 21.8512 29.2182C21.7522 29.2093 21.6525 29.2201 21.5579 29.2501C21.4632 29.2801 21.3754 29.3285 21.2996 29.3927C21.2238 29.4569 21.1615 29.5355 21.1163 29.6239C21.0711 29.7123 21.0439 29.8089 21.0363 29.9079C21.0202 30.0863 21.0063 30.2654 20.9923 30.4441C20.913 31.462 20.8381 32.4233 20.391 33.033C19.9137 33.6836 19.0256 34.008 18.0851 34.3506C17.3246 34.628 16.5381 34.9149 15.89 35.4075C15.811 35.4669 15.7446 35.5413 15.6945 35.6265C15.6444 35.7116 15.6116 35.8059 15.598 35.9037C15.5844 36.0016 15.5903 36.1012 15.6153 36.1968C15.6403 36.2924 15.684 36.382 15.7438 36.4607C15.8036 36.5394 15.8783 36.6054 15.9637 36.6551C16.0492 36.7048 16.1435 36.7371 16.2415 36.7502C16.3394 36.7633 16.439 36.7569 16.5344 36.7314C16.6299 36.7059 16.7194 36.6618 16.7977 36.6016C17.1315 36.3651 17.495 36.1734 17.8787 36.0315L24.306 41.35C24.7608 41.7261 25.129 42.196 25.3855 42.7275C25.642 43.259 25.7806 43.8397 25.792 44.4298L25.7998 44.8254C25.0498 44.9898 24.2536 45.082 23.5655 44.8888C22.4091 44.5638 21.5317 43.5406 20.603 42.4573C19.8887 41.625 19.1505 40.7634 18.2355 40.1875C17.3012 39.6 16.1541 39.2708 15.0446 38.953C13.6237 38.5461 12.2821 38.1618 11.5718 37.318C10.8667 36.4805 10.8036 35.1923 10.7367 33.8288C10.6845 32.7635 10.6303 31.662 10.2591 30.6735C9.90384 29.7275 9.22609 28.8589 8.57059 28.0189C7.68859 26.8886 6.85559 25.821 6.85559 24.7143C6.85559 23.6075 7.68859 22.5399 8.57059 21.4096C9.22609 20.5696 9.90384 19.701 10.2591 18.7549C10.6303 17.7665 10.6841 16.6649 10.7367 15.5996C10.8036 14.2363 10.8668 12.9484 11.5718 12.1104C12.2818 11.2666 13.6237 10.8824 15.0447 10.4755C16.1541 10.1578 17.3012 9.82913 18.2355 9.241C19.1505 8.66488 19.8887 7.8035 20.6028 6.971C21.5317 5.88763 22.4092 4.86425 23.5653 4.5395C24.3403 4.3215 25.2366 4.45513 26.1942 4.69613C25.2013 5.48625 24.8725 6.74488 24.5825 7.8565C24.395 8.57513 24.218 9.25375 23.8983 9.75775C23.5945 10.2365 23.0578 10.6904 22.4897 11.171C21.5681 11.9506 20.5235 12.8341 20.2581 14.1031C19.9927 15.3721 20.5956 16.6 21.1281 17.6835C21.4561 18.3515 21.7656 18.9824 21.8531 19.5428C21.9442 20.1326 21.8345 20.8254 21.7182 21.5589C21.5376 22.7 21.3327 23.9934 21.9382 25.1195C22.5265 26.2133 23.6911 26.827 24.8172 27.4205C25.5442 27.8036 26.2308 28.1655 26.6997 28.6183C26.8428 28.7564 27.0349 28.8321 27.2338 28.8286C27.4327 28.8252 27.622 28.7428 27.7602 28.5998C27.8984 28.4567 27.9741 28.2646 27.9706 28.0657C27.9671 27.8668 27.8848 27.6774 27.7417 27.5393C27.1191 26.9381 26.3042 26.5088 25.5167 26.0935C24.5468 25.5824 23.6308 25.0996 23.2593 24.4091C22.8935 23.7285 23.0423 22.7886 23.2 21.7935C23.3291 20.9784 23.4625 20.1356 23.3357 19.3139C23.2141 18.5264 22.8385 17.762 22.4753 17.0224C22.0085 16.0724 21.5675 15.1739 21.7272 14.4099C21.887 13.6459 22.6505 13 23.4586 12.316C24.0877 11.7839 24.7383 11.2335 25.165 10.5611C25.6105 9.85913 25.8258 9.03338 26.0341 8.23475C26.2883 7.25975 26.5285 6.33913 27.1365 5.86213C27.7535 5.37825 28.7865 5.30288 29.8796 5.22313C30.7678 5.15825 31.6862 5.09125 32.4976 4.78988C33.2941 4.49388 33.9888 3.95913 34.6608 3.442C35.4991 2.79688 36.291 2.18738 37.1483 2.1295C37.9532 2.07488 38.8517 2.55213 39.8046 3.057C40.6117 3.48475 41.4463 3.92725 42.345 4.115C43.2436 4.30275 44.1851 4.232 45.0963 4.16338C46.1713 4.08225 47.1873 4.00588 47.9017 4.37788C48.6642 4.77463 49.1453 5.65013 49.655 6.57713C50.0636 7.32013 50.486 8.08863 51.0972 8.67888C51.7197 9.28013 52.5347 9.7095 53.3222 10.1248C54.292 10.6359 55.2081 11.1186 55.5795 11.8093C55.9453 12.4899 55.7966 13.4298 55.639 14.4248C55.5098 15.2399 55.3765 16.0828 55.5032 16.9044C55.6247 17.6919 56.0003 18.4563 56.3636 19.196C56.8308 20.1463 57.2717 21.0441 57.1121 21.8079V21.8075Z" fill="#F2F2F2"/>
</svg>
